<?xml version="1.0" encoding="utf-8"?>
<svg xmlns="http://www.w3.org/2000/svg" xmlns:xlink="http://www.w3.org/1999/xlink" version= "1.1" width="1400px" height="902px" viewBox="-340 310 1400 902">
<g id="layer1">
<g style="fill:rgb(64,95,111); fill-opacity:1.0; stroke-linejoin: miter">
<path d="M-340.001,308.7045C-340.34433,308.7045,-340.67358,308.84088,-340.91635,309.08365C-341.15912,309.32642,-341.2955,309.65567,-341.2955,309.999L-341.2945,1212.0C-341.2945,1212.715,-340.71494,1213.2944,-340.0,1213.2944L1060.001,1213.2954C1060.3442,1213.2954,1060.6736,1213.1592,1060.9164,1212.9164C1061.1592,1212.6736,1061.2954,1212.3442,1061.2954,1212.001L1061.2944,310.0C1061.2944,309.28506,1060.715,308.7055,1060.0,308.7055L-340.001,308.7045 Z"/>
</g>
<g>
<g style="fill:rgb(99,195,207); fill-opacity:1.0; stroke-linejoin: miter">
<path d="M242.56403,691.1394L279.00784,691.1404L279.00784,1024.3142L242.56403,1024.3152L242.56403,691.1394 Z"/>
</g>
<g style="fill:rgb(99,195,207); fill-opacity:1.0; stroke-linejoin: miter">
<path d="M336.6774,691.13947L373.1212,691.14044L373.1212,1024.3143L336.6774,1024.3153L336.6774,691.13947 Z"/>
</g>
<g style="fill:rgb(99,195,207); fill-opacity:1.0; stroke-linejoin: miter">
<path d="M430.7908,691.1395L467.2346,691.1405L467.2346,1024.3145L430.7908,1024.3154L430.7908,691.1395 Z"/>
</g>
</g>
<g style="fill:rgb(220,229,235); fill-opacity:1.0; stroke-linejoin: miter">
<path d="M249.39246,833.9189L260.06555,833.9194L270.73868,833.9198Q270.73868,909.7744,270.73868,985.629Q260.06555,985.6295,249.39246,985.63Q249.39246,909.7744,249.39246,833.9189"/>
</g>
<g style="fill:rgb(220,229,235); fill-opacity:1.0; stroke-linejoin: miter">
<path d="M343.1661,837.0743L353.83923,837.07477L364.51236,837.0753Q364.51236,912.9299,364.51236,988.7844Q353.83923,988.7849,343.1661,988.7854Q343.1661,912.9298,343.1661,837.0743"/>
</g>
<g style="fill:rgb(220,229,235); fill-opacity:1.0; stroke-linejoin: miter">
<path d="M438.29016,833.16876L448.9633,833.16925L459.6364,833.1697Q459.6364,909.0243,459.6364,984.8789Q448.9633,984.8794,438.29016,984.8799Q438.29016,909.0243,438.29016,833.16876"/>
</g>
<g style="fill:rgb(99,195,207); fill-opacity:1.0; stroke-linejoin: miter">
<path d="M187.38257,964.23663L186.56367,975.4624Q180.74164,1009.3875,152.49312,1029.7277Q124.049164,1050.0513,85.5037,1046.21Q48.71707,1040.8407,26.661474,1014.78955Q19.594618,1006.36865,15.01961,996.4383L11.174443,986.2291Q8.005675,975.6919,7.9700484,964.23663Q8.931996,929.0822,34.2444,905.7387Q59.556805,882.39526,97.6763,881.5081Q135.79582,882.39526,161.10822,905.7387Q186.42064,929.0822,187.38257,964.23663"/>
</g>
<g style="fill:rgb(99,195,207); fill-opacity:1.0; stroke-linejoin: miter">
<path d="M115.82743,751.3705L97.676285,751.371L79.52515,751.37146Q79.52515,854.39655,79.52515,957.4217Q97.676285,957.4222,115.82743,957.42267Q115.82743,854.39655,115.82743,751.3705"/>
</g>
<g style="fill:rgb(68,145,155); fill-opacity:1.0; stroke-linejoin: miter">
<path d="M63.465652,719.6372L97.6763,719.6377L131.88695,719.6382Q131.88695,743.6693,131.88695,767.70044Q97.6763,767.7009,63.465652,767.7014Q63.465652,743.6693,63.465652,719.6372"/>
</g>
<g style="fill:rgb(99,195,207); fill-opacity:1.0; stroke-linejoin: miter">
<path d="M114.54206,795.8685L188.90738,795.869L263.27267,795.8695Q263.27267,805.7263,263.27267,815.58307Q188.90738,815.58356,114.54206,815.58405Q114.54206,805.7263,114.54206,795.8685"/>
</g>
<g style="fill:rgb(0,0,0); fill-opacity:1.0; stroke-linejoin: miter">
<path d="M216.01848,983.89966L354.89935,983.90015L493.7802,983.9006Q493.7802,1014.4575,493.7802,1045.0144Q354.89935,1045.0149,216.01848,1045.0154Q216.01848,1014.4575,216.01848,983.89966"/>
</g>
<g style="fill:rgb(99,195,207); fill-opacity:1.0; stroke-linejoin: miter">
<path d="M256.41693,795.8685L330.78226,795.869L405.14758,795.8695Q405.14758,805.7263,405.14758,815.58307Q330.78226,815.58356,256.41693,815.58405Q256.41693,805.7263,256.41693,795.8685"/>
</g>
<g style="fill:rgb(99,195,207); fill-opacity:1.0; stroke-linejoin: miter">
<path d="M322.11746,795.8685L396.4828,795.869L470.8481,795.8695Q470.8481,805.7263,470.8481,815.58307Q396.4828,815.58356,322.11746,815.58405Q322.11746,805.7263,322.11746,795.8685"/>
</g>
<g style="fill:rgb(220,229,235); fill-opacity:1.0; stroke-linejoin: miter">
<path d="M167.54156,963.5684L166.88087,972.8435Q162.18365,1000.87354,139.39282,1017.6791Q116.44429,1034.4711,85.34588,1031.2972Q55.666496,1026.8611,37.872078,1005.3368Q32.170547,998.3792,28.47944,990.17444L25.377167,981.7393Q22.82061,973.03314,22.791866,963.5684Q23.567963,934.5229,43.989967,915.23584Q64.41197,895.9487,95.16672,895.21576Q125.92146,895.9487,146.34346,915.23584Q166.76547,934.5229,167.54156,963.5684"/>
</g>
<g style="fill:rgb(99,195,207); fill-opacity:1.0; stroke-linejoin: miter">
<path d="M29.002752,966.2173L98.83877,966.2178L168.67477,966.21826Q168.67477,940.2058,168.67477,914.19336Q98.83877,914.19385,29.002752,914.19434Q29.002752,940.2058,29.002752,966.2173"/>
</g>
<g style="fill:rgb(99,195,207); fill-opacity:1.0; stroke-linejoin: miter">
<path d="M17.512074,933.96173L33.070595,933.9622L48.629116,933.9627Q48.629116,950.02686,48.629116,966.09106Q33.070595,966.09155,17.512074,966.09204Q17.512074,950.02686,17.512074,933.96173"/>
</g>
<g style="fill:rgb(99,195,207); fill-opacity:1.0; stroke-linejoin: miter">
<path d="M123.351616,897.1383L136.53406,897.1388L149.71649,897.1393Q149.71649,911.43317,149.71649,925.72705Q136.53406,925.72754,123.351616,925.728Q123.351616,911.43317,123.351616,897.1383"/>
</g>
<g style="fill:rgb(99,195,207); fill-opacity:1.0; stroke-linejoin: miter">
<path d="M41.46397,906.92206L54.073936,906.92255L66.6839,906.92303Q66.6839,918.5879,66.6839,930.25275Q54.073936,930.25323,41.46397,930.2537Q41.46397,918.5879,41.46397,906.92206"/>
</g>
<g style="fill:rgb(99,195,207); fill-opacity:1.0; stroke-linejoin: miter">
<path d="M52.477737,902.13885L70.45305,902.1394L88.42836,902.1399Q88.42836,915.9691,88.42836,929.79834Q70.45305,929.7988,52.477737,929.7993Q52.477737,915.9691,52.477737,902.13885"/>
</g>
<g style="fill:rgb(99,195,207); fill-opacity:1.0; stroke-linejoin: miter">
<path d="M72.219406,889.24493L101.10459,889.2454L129.98978,889.246Q129.98978,905.0782,129.98978,920.91046Q101.10459,920.91095,72.219406,920.91144Q72.219406,905.0782,72.219406,889.24493"/>
</g>
<g style="fill:rgb(99,195,207); fill-opacity:1.0; stroke-linejoin: miter">
<path d="M59.9588,892.5724L71.61676,892.5729L83.27472,892.57336Q83.27472,904.23083,83.27472,915.88837Q71.61676,915.88885,59.9588,915.88934Q59.9588,904.23083,59.9588,892.5724"/>
</g>
<g style="fill:rgb(68,145,155); fill-opacity:1.0; stroke-linejoin: miter">
<path d="M234.27042,676.70496L260.01672,676.70544L285.763,676.70593Q285.763,694.13544,285.763,711.5649Q260.01672,711.5653,234.27042,711.5658Q234.27042,694.1354,234.27042,676.70496"/>
</g>
<g style="fill:rgb(68,145,155); fill-opacity:1.0; stroke-linejoin: miter">
<path d="M329.2759,673.34937L355.02225,673.34985L380.7686,673.35034Q380.7686,690.7798,380.7686,708.2092Q355.02225,708.2097,329.2759,708.2102Q329.2759,690.7798,329.2759,673.34937"/>
</g>
<g style="fill:rgb(68,145,155); fill-opacity:1.0; stroke-linejoin: miter">
<path d="M424.2709,671.94415L450.01724,671.94464L475.76358,671.94507Q475.76358,689.3745,475.76358,706.804Q450.01724,706.8045,424.2709,706.805Q424.2709,689.3746,424.2709,671.94415"/>
</g>
<g style="fill:rgb(255,0,0); fill-opacity:1.0; stroke-linejoin: miter">
<path d="M729.4192,981.84296L824.90094,981.8435L920.38275,981.844Q920.38275,1012.28235,920.38275,1042.7207Q824.90094,1042.7212,729.4192,1042.7216Q729.4192,1012.2823,729.4192,981.84296"/>
</g>
<g style="fill:rgb(255,255,255); fill-opacity:1.0; stroke-linejoin: miter">
<path d="M729.4359,994.61145L816.63245,994.61194L903.829,994.6124Q903.829,1012.49396,903.829,1030.3756Q816.63245,1030.3761,729.4359,1030.3766Q729.4359,1012.494,729.4359,994.61145"/>
</g>
<g style="fill:rgb(255,255,255); fill-opacity:1.0; stroke-linejoin: miter">
<path d="M511.2483,809.35645L518.4882,802.74255L525.7282,796.12866Q534.11926,805.31305,542.5103,814.4975Q535.271,821.1121,528.03174,827.7268Q519.64,818.5416,511.2483,809.35645"/>
</g>
<g style="fill:rgb(0,0,0); fill-opacity:1.0; stroke-linejoin: miter">
<path d="M647.52313,931.5525L647.47565,932.2587Q647.1378,934.393,645.49896,935.67255Q643.84875,936.9511,641.6125,936.7095Q639.4782,936.3717,638.1986,934.7328Q637.78864,934.20306,637.5232,933.5783L637.3001,932.9361Q637.1163,932.2732,637.1142,931.5525Q637.17,929.34094,638.63855,927.87244Q640.1071,926.4039,642.31866,926.3481Q644.5302,926.4039,645.9988,927.87244Q647.46735,929.34094,647.52313,931.5525"/>
</g>
<g style="fill:rgb(255,255,255); fill-opacity:1.0; stroke-linejoin: miter">
<path d="M635.0608,910.8467L642.1561,918.4081L649.25146,925.9694Q643.5017,931.3655,637.7519,936.7615Q630.65576,929.2007,623.5597,921.6399Q629.31024,916.2433,635.0608,910.8467"/>
</g>
<g style="fill:rgb(115,192,88); fill-opacity:1.0; stroke-linejoin: miter">
<path d="M718.5559,922.0496L814.03766,922.0501L909.5195,922.0506Q909.5195,952.4889,909.5195,982.92725Q814.03766,982.92773,718.5559,982.9283Q718.5559,952.48895,718.5559,922.0496"/>
</g>
<g style="fill:rgb(255,255,255); fill-opacity:1.0; stroke-linejoin: miter">
<path d="M718.5726,934.81793L805.76917,934.8184L892.96576,934.8189Q892.96576,952.70044,892.96576,970.582Q805.76917,970.5825,718.5726,970.583Q718.5726,952.70044,718.5726,934.81793"/>
</g>
<g style="fill:rgb(0,0,0); fill-opacity:1.0; stroke-linejoin: miter">
<path d="M550.5265,981.36334L624.9088,981.3639L699.29114,981.3644Q699.29114,1011.915,699.29114,1042.4656Q624.9088,1042.4661,550.5265,1042.4664Q550.5265,1011.9149,550.5265,981.36334"/>
</g>
<g style="fill:rgb(0,0,0); fill-opacity:1.0; stroke-linejoin: miter">
<path d="M571.5215,816.8771L580.81934,816.87756L590.1172,816.87805Q590.1172,909.026,590.1172,1001.17395Q580.81934,1001.17444,571.5215,1001.1749Q571.5215,909.026,571.5215,816.8771"/>
</g>
<g style="fill:rgb(0,0,0); fill-opacity:1.0; stroke-linejoin: miter">
<path d="M545.0044,796.16675L597.44745,850.5938L649.8905,905.02094Q633.6788,920.64185,617.4671,936.2628Q565.02325,881.8365,512.57947,827.4101Q528.79193,811.78845,545.0044,796.16675"/>
</g>
<g style="fill:rgb(0,0,0); fill-opacity:1.0; stroke-linejoin: miter">
<path d="M577.4519,947.8729L622.8713,947.8734L668.29065,947.87384Q668.29065,949.9082,668.29065,951.9426Q622.8713,951.9431,577.4519,951.9436Q577.4519,949.90826,577.4519,947.8729"/>
</g>
<g style="fill:rgb(255,255,255); fill-opacity:1.0; stroke-linejoin: miter">
<path d="M605.7046,945.7561L631.4824,945.7566L657.26025,945.7571Q657.26025,946.7419,657.26025,947.7267Q631.4824,947.7272,605.7046,947.72766Q605.7046,946.7419,605.7046,945.7561"/>
</g>
<g style="fill:rgb(106,234,67); fill-opacity:1.0; stroke-linejoin: miter">
<path d="M-33.516808,984.45123L-34.091293,992.3265Q-38.17566,1016.12616,-57.99295,1030.3954Q-77.947365,1044.6532,-104.98834,1041.9584Q-130.79544,1038.1917,-146.26819,1019.9159Q-151.22585,1014.0083,-154.43536,1007.0418L-157.13289,999.87976Q-159.35588,992.4875,-159.38087,984.45123Q-158.70604,959.78925,-140.94852,943.413Q-123.190994,927.0368,-96.44884,926.4144Q-69.70671,927.0368,-51.949173,943.413Q-34.191658,959.78925,-33.516808,984.45123"/>
</g>
<g style="fill:rgb(106,234,67); fill-opacity:1.0; stroke-linejoin: miter">
<path d="M-83.71519,835.1186L-96.448845,835.1191L-109.1825,835.11957Q-109.1825,907.395,-109.1825,979.6704Q-96.448845,979.6709,-83.71519,979.6714Q-83.71519,907.395,-83.71519,835.1186"/>
</g>
<g style="fill:rgb(69,159,42); fill-opacity:1.0; stroke-linejoin: miter">
<path d="M-120.448784,812.8566L-96.44882,812.8571L-72.44887,812.8576Q-72.44887,829.71606,-72.44887,846.5746Q-96.44882,846.5751,-120.448784,846.57556Q-120.448784,829.71606,-120.448784,812.8566"/>
</g>
<g style="fill:rgb(42,115,159); fill-opacity:1.0; stroke-linejoin: miter">
<path d="M-47.435944,983.9826L-47.89943,990.4894Q-51.194687,1010.1534,-67.18325,1021.943Q-83.28244,1033.7231,-105.099045,1031.4966Q-125.920166,1028.3845,-138.40356,1013.2845Q-142.40338,1008.4035,-144.99281,1002.6476L-147.16917,996.7301Q-148.96269,990.62244,-148.98285,983.9826Q-148.43839,963.60614,-134.11165,950.0756Q-119.784904,936.5451,-98.2094,936.0309Q-76.63389,936.5451,-62.307137,950.0756Q-47.980392,963.60614,-47.435944,983.9826"/>
</g>
<g style="fill:rgb(106,234,67); fill-opacity:1.0; stroke-linejoin: miter">
<path d="M-144.6257,985.8408L-95.63332,985.8413L-46.640945,985.84186Q-46.640945,967.5931,-46.640945,949.3443Q-95.63332,949.3448,-144.6257,949.3453Q-144.6257,967.593,-144.6257,985.8408"/>
</g>
<g style="fill:rgb(106,234,67); fill-opacity:1.0; stroke-linejoin: miter">
<path d="M-152.68681,963.2127L-141.77197,963.2132L-130.85713,963.2137Q-130.85713,974.52203,-130.85713,985.83044Q-141.77197,985.83093,-152.68681,985.8314Q-152.68681,974.52203,-152.68681,963.2127"/>
</g>
<g style="fill:rgb(106,234,67); fill-opacity:1.0; stroke-linejoin: miter">
<path d="M-78.436714,937.37964L-69.18878,937.3801L-59.940853,937.3806Q-59.940853,947.4081,-59.940853,957.43555Q-69.18878,957.43604,-78.436714,957.4365Q-78.436714,947.4081,-78.436714,937.37964"/>
</g>
<g style="fill:rgb(106,234,67); fill-opacity:1.0; stroke-linejoin: miter">
<path d="M-135.88373,944.2433L-127.03741,944.2438L-118.191086,944.24426Q-118.191086,952.4274,-118.191086,960.6106Q-127.03741,960.6111,-135.88373,960.6116Q-135.88373,952.4274,-135.88373,944.2433"/>
</g>
<g style="fill:rgb(106,234,67); fill-opacity:1.0; stroke-linejoin: miter">
<path d="M-128.15718,940.8877L-115.54689,940.8882L-102.93659,940.8887Q-102.93659,950.5902,-102.93659,960.29175Q-115.54689,960.29224,-128.15718,960.2927Q-128.15718,950.5902,-128.15718,940.8877"/>
</g>
<g style="fill:rgb(106,234,67); fill-opacity:1.0; stroke-linejoin: miter">
<path d="M-114.30773,931.84216L-94.04378,931.84265L-73.77982,931.8431Q-73.77982,942.9498,-73.77982,954.0566Q-94.04378,954.0571,-114.30773,954.0576Q-114.30773,942.9499,-114.30773,931.84216"/>
</g>
<g style="fill:rgb(106,234,67); fill-opacity:1.0; stroke-linejoin: miter">
<path d="M-122.90897,934.1765L-114.730515,934.177L-106.55205,934.1774Q-106.55205,942.3554,-106.55205,950.53345Q-114.730515,950.53394,-122.90897,950.5344Q-122.90897,942.35547,-122.90897,934.1765"/>
</g>
<g style="fill:rgb(34,43,50); fill-opacity:1.0; stroke-linejoin: miter">
<path d="M-242.6514,1042.4202L364.44742,1042.4207L971.54626,1042.4211Q971.54626,1086.1207,971.54626,1129.8203Q364.44742,1129.8208,-242.6514,1129.8213Q-242.6514,1086.1207,-242.6514,1042.4202"/>
</g>
<g style="fill:rgb(255,255,255); fill-opacity:0.42745098; stroke-linejoin: miter">
<path d="M87.770294,916.65076L87.63698,918.6324Q86.68918,924.6211,82.09045,928.2117Q77.45989,931.7993,71.18486,931.1212Q65.19616,930.1734,61.605602,925.5747Q60.455147,924.0882,59.710358,922.3352L59.08438,920.533Q58.568516,918.6729,58.562717,916.65076Q58.71932,910.44507,62.840073,906.3243Q66.96082,902.20355,73.166504,902.04694Q79.37219,902.20355,83.49295,906.3243Q87.61369,910.44507,87.770294,916.65076"/>
</g>
<g style="fill:rgb(255,255,255); fill-opacity:0.42745098; stroke-linejoin: miter">
<path d="M-101.742744,960.06665L-101.87606,962.0483Q-102.82386,968.037,-107.42259,971.62756Q-112.05315,975.2153,-118.328186,974.5372Q-124.31689,973.58936,-127.90745,968.9906Q-129.0579,967.5041,-129.80269,965.7511L-130.42867,963.9489Q-130.94453,962.0888,-130.95033,960.06665Q-130.79373,953.8609,-126.67298,949.7402Q-122.55222,945.61945,-116.346535,945.4628Q-110.14085,945.61945,-106.020096,949.7402Q-101.899345,953.8609,-101.742744,960.06665"/>
</g>
<g style="fill:rgb(255,255,255); fill-opacity:0.42745098; stroke-linejoin: miter">
<path d="M247.87093,759.2957Q247.73947,759.2957,247.6115,759.2997Q244.90332,759.3377,242.56157,760.1972Q242.56403,773.89764,242.56403,787.5981Q244.27583,788.2126,246.2456,788.43054Q247.00899,788.5001,247.74953,788.5001Q252.64049,788.5001,256.53546,785.4644Q261.0654,781.99194,262.082,775.8852L262.2153,773.9035Q262.1765,772.4403,261.89648,770.82794Q261.85086,770.343,260.81778,767.6518Q259.44458,764.9583,257.938,763.5771Q255.82579,761.52484,253.51399,760.50836Q250.16277,759.2957,247.87093,759.2957 Z"/>
</g>
<g style="fill:rgb(255,255,255); fill-opacity:0.42745098; stroke-linejoin: miter">
<path d="M368.53967,740.919Q368.40823,740.919,368.28024,740.923Q365.57205,740.961,363.23032,741.8205Q363.23276,755.52094,363.23276,769.2214Q364.94458,769.8359,366.91434,770.05383Q367.67773,770.1234,368.41827,770.1234Q370.89566,770.1234,373.11752,769.34454L373.1213,741.7707Q370.46036,740.919,368.53967,740.919 Z"/>
</g>
<g style="fill:rgb(255,255,255); fill-opacity:0.42745098; stroke-linejoin: miter">
<path d="M430.79083,735.5172Q430.79083,748.2027,430.79083,760.88824Q431.63632,760.39136,432.43945,759.7654Q436.96942,756.2929,437.98602,750.18616L438.11932,748.20447Q438.08054,746.7413,437.8005,745.1289Q437.75488,744.644,436.7218,741.95276Q435.3486,739.2593,433.84198,737.87805Q432.36725,736.4451,430.7952,735.5172 Z"/>
</g>
<g style="fill:rgb(0,0,0); fill-opacity:1.0; stroke-linejoin: miter">
<path d="M739.5359,862.7254L835.01764,862.7259L930.49945,862.7264Q930.49945,893.1647,930.49945,923.60297Q835.01764,923.60345,739.5359,923.60394Q739.5359,893.1647,739.5359,862.7254"/>
</g>
<g style="fill:rgb(255,255,255); fill-opacity:1.0; stroke-linejoin: miter">
<path d="M739.5526,875.4938L826.74915,875.49426L913.9457,875.49475Q913.9457,893.3763,913.9457,911.2579Q826.74915,911.2584,739.5526,911.2589Q739.5526,893.37634,739.5526,875.4938"/>
</g>
<g style="fill:rgb(34,43,50); fill-opacity:1.0; stroke-linejoin: miter">
<path d="M-138.17596,1104.1128L373.77112,1104.1133L885.7182,1104.1138Q885.7182,1158.8821,885.7182,1213.6504Q373.77112,1213.6509,-138.17596,1213.6514Q-138.17596,1158.8821,-138.17596,1104.1128"/>
</g>
</g>
</svg>